<svg xmlns="http://www.w3.org/2000/svg" width="1200" height="1200" viewBox="0 0 1200 1200" version="1.1"><path d="M 195 600 L 195 840 600 840 L 1005 840 1005 600 L 1005 360 600 360 L 195 360 195 600 M 210 600 L 210 825 600 825 L 990 825 990 600 L 990 375 600 375 L 210 375 210 600 M 225 600 L 225 810 600 810 L 975 810 975 600 L 975 390 600 390 L 225 390 225 600 M 240 484 L 240 563 352.500 563 L 465 563 465 570 L 465 577 352.500 577 L 240 577 240 686 L 240 795 600 795 L 960 795 960 686 L 960 577 847.500 577 L 735 577 735 570 L 735 563 847.500 563 L 960 563 960 484 L 960 405 600 405 L 240 405 240 484 M 527.924 454.580 L 525.500 457.160 525.228 520.080 L 524.956 583 600 583 L 675.044 583 674.772 520.080 L 674.500 457.160 672.076 454.580 L 669.651 452 600 452 L 530.349 452 527.924 454.580 M 532.250 457.662 C 531.448 457.986, 531 460.286, 531 464.083 L 531 470 600 470 L 669 470 669 464.107 C 669 459.656, 668.613 458.065, 667.418 457.607 C 665.528 456.881, 534.052 456.935, 532.250 457.662 M 531 526.500 L 531 578 600 578 L 669 578 669 526.500 L 669 475 600 475 L 531 475 531 526.500 M 609.091 490.250 C 608.618 491.488, 602.270 507.044, 594.985 524.820 C 585.951 546.866, 582.066 557.466, 582.764 558.164 C 585.765 561.165, 587.331 558.302, 601.149 524.535 C 608.794 505.855, 614.827 489.992, 614.556 489.285 C 613.735 487.146, 610.027 487.801, 609.091 490.250 M 560.500 512.384 C 553.186 516.628, 549.500 519.347, 549.500 520.500 C 549.500 522.634, 570.530 535.120, 573.500 534.750 C 574.736 534.595, 575.500 533.750, 575.500 532.537 C 575.500 531.117, 573.081 529.194, 566.746 525.579 C 561.069 522.340, 558.433 520.317, 559.246 519.826 C 559.936 519.409, 563.875 517.126, 568 514.753 C 573.333 511.685, 575.500 509.869, 575.500 508.469 C 575.500 504.888, 571.716 505.875, 560.500 512.384 M 624.306 507.645 C 623.555 509.601, 624.847 510.645, 634.943 516.233 C 640.516 519.318, 642.024 520.577, 640.943 521.241 C 640.149 521.729, 635.985 524.155, 631.690 526.633 C 626.163 529.821, 623.973 531.629, 624.200 532.819 C 624.807 536.004, 628.531 535.009, 639.500 528.732 C 647.546 524.127, 650.500 521.917, 650.500 520.500 C 650.500 519.082, 647.553 516.883, 639.500 512.289 C 627.993 505.725, 625.352 504.918, 624.306 507.645 M 366 687 L 366 709 370 709 L 374 709 374 687 L 374 665 370 665 L 366 665 366 687 M 466 672.500 C 466 676.625, 465.844 680, 465.654 680 C 465.463 680, 463.810 679.253, 461.981 678.340 C 459.028 676.867, 458.201 676.839, 454.624 678.090 C 448.811 680.124, 446.493 684.535, 446.526 693.500 C 446.559 702.136, 448.644 706.536, 453.708 708.652 C 457.609 710.281, 461.460 709.782, 464.229 707.286 C 465.797 705.873, 466.017 705.880, 466.586 707.364 C 466.997 708.434, 468.388 709, 470.607 709 L 474 709 474 687 L 474 665 470 665 L 466 665 466 672.500 M 553 687 L 553 709 557 709 L 561 709 561 687 L 561 665 557 665 L 553 665 553 687 M 569 687 L 569 709 573 709 L 577 709 577 687 L 577 665 573 665 L 569 665 569 687 M 616.365 687 L 616.325 709 619.694 709 C 621.808 709, 623.283 708.425, 623.655 707.457 C 624.174 706.104, 624.492 706.135, 626.229 707.707 C 629.250 710.441, 636.192 710.108, 639.421 707.074 C 645.395 701.462, 645.549 686.729, 639.702 680.265 C 636.924 677.195, 631.906 676.402, 627.902 678.399 C 626.137 679.280, 624.537 680, 624.346 680 C 624.156 680, 624 676.625, 624 672.500 L 624 665 620.203 665 L 616.406 665 616.365 687 M 846 687 L 846 709 850 709 L 854 709 854 697.622 C 854 685.213, 854.599 683.750, 859.675 683.750 C 864.084 683.750, 865 686.234, 865 698.191 L 865 709 869.082 709 L 873.163 709 872.832 696.569 C 872.545 685.827, 872.215 683.756, 870.404 681.319 C 867.299 677.143, 862.136 676.132, 857.593 678.813 L 854 680.933 854 672.966 L 854 665 850 665 L 846 665 846 687 M 337.594 666.990 C 333.176 668.389, 328.357 673.655, 326.974 678.592 C 325.236 684.800, 326.122 697.703, 328.573 701.865 C 331.518 706.867, 336.485 709.473, 342.996 709.432 C 349.613 709.391, 354.344 707.123, 357.040 702.701 C 360.162 697.581, 359.681 696, 355 696 C 352.111 696, 351 696.417, 351 697.500 C 351 700.323, 347.190 703, 343.174 703 C 337.428 703, 334.914 699.803, 334.261 691.664 C 333.585 683.245, 334.567 678.342, 337.521 675.388 C 342.003 670.906, 351 673.317, 351 679 C 351 680.667, 351.667 681, 355 681 C 358.483 681, 359 680.709, 358.996 678.750 C 358.991 675.434, 355.521 670.321, 352.061 668.532 C 348.202 666.536, 341.337 665.804, 337.594 666.990 M 491.594 666.990 C 487.176 668.389, 482.357 673.655, 480.974 678.592 C 479.236 684.800, 480.122 697.703, 482.573 701.865 C 485.518 706.867, 490.485 709.473, 496.996 709.432 C 503.613 709.391, 508.344 707.123, 511.040 702.701 C 514.162 697.581, 513.681 696, 509 696 C 506.111 696, 505 696.417, 505 697.500 C 505 700.323, 501.190 703, 497.174 703 C 491.428 703, 488.914 699.803, 488.261 691.664 C 487.585 683.245, 488.567 678.342, 491.521 675.388 C 496.003 670.906, 505 673.317, 505 679 C 505 680.667, 505.667 681, 509 681 C 512.483 681, 513 680.709, 512.996 678.750 C 512.991 675.434, 509.521 670.321, 506.061 668.532 C 502.202 666.536, 495.337 665.804, 491.594 666.990 M 650 688 L 650 709 657.250 708.994 C 667.220 708.987, 671.795 707.518, 676.186 702.914 C 683.632 695.108, 683.104 678.828, 675.173 671.655 C 671.838 668.639, 665.986 667.091, 657.750 667.044 L 650 667 650 688 M 747 670.500 L 747 674 753.500 674 L 760 674 760 691.500 L 760 709 764 709 L 768 709 768 691.500 L 768 674 774.500 674 L 781 674 781 670.500 L 781 667 764 667 L 747 667 747 670.500 M 658 688 L 658 702 662.066 702 C 669.870 702, 673 697.992, 673 688 C 673 678.008, 669.870 674, 662.066 674 L 658 674 658 688 M 390.286 677.653 C 386.791 678.405, 382.306 683.247, 380.968 687.711 C 379.411 692.910, 380.401 699.810, 383.330 704.177 C 387.414 710.263, 397.461 711.572, 403.520 706.806 C 411.104 700.840, 410.760 685.495, 402.913 679.748 C 400.262 677.806, 394.227 676.805, 390.286 677.653 M 528.286 677.653 C 524.791 678.405, 520.306 683.247, 518.968 687.711 C 517.411 692.910, 518.401 699.810, 521.330 704.177 C 525.414 710.263, 535.461 711.572, 541.520 706.806 C 549.104 700.840, 548.760 685.495, 540.913 679.748 C 538.262 677.806, 532.227 676.805, 528.286 677.653 M 591.313 678.102 C 588.038 679.050, 584 683.209, 584 685.635 C 584 687.925, 591.270 687.398, 592.768 685 C 595.177 681.143, 601 683.053, 601 687.700 C 601 689.500, 600.445 690, 598.443 690 C 594.087 690, 587.201 692.120, 585.519 693.979 C 578.503 701.732, 588.588 713.345, 598.181 708.560 C 600.242 707.531, 601.602 707.307, 601.820 707.959 C 602.010 708.531, 603.841 709, 605.888 709 L 609.609 709 609.207 696.750 C 608.757 683.044, 607.888 680.687, 602.454 678.416 C 598.652 676.828, 595.979 676.752, 591.313 678.102 M 694.424 678.848 C 685.607 682.955, 683.434 698.162, 690.636 705.364 C 695.796 710.524, 705.502 711.053, 710.835 706.466 C 713.390 704.268, 713.420 704.121, 711.701 702.222 C 709.983 700.324, 709.803 700.316, 706.505 701.998 C 701.105 704.750, 695.720 702.674, 694.840 697.500 C 694.522 695.629, 695.129 695.482, 704.250 695.214 L 714 694.928 714 691.432 C 714 680.413, 704.364 674.219, 694.424 678.848 M 790.424 678.848 C 781.607 682.955, 779.434 698.162, 786.636 705.364 C 791.796 710.524, 801.502 711.053, 806.835 706.466 C 809.390 704.268, 809.420 704.121, 807.701 702.222 C 805.983 700.324, 805.803 700.316, 802.505 701.998 C 797.105 704.750, 791.720 702.674, 790.840 697.500 C 790.522 695.629, 791.129 695.482, 800.250 695.214 L 810 694.928 810 691.432 C 810 680.413, 800.364 674.219, 790.424 678.848 M 822 678.752 C 813.471 683.012, 811.417 698.130, 818.329 705.767 C 824.555 712.647, 837.817 709.939, 840.452 701.250 C 841.070 699.214, 840.801 699, 837.617 699 C 835.682 699, 833.740 699.609, 833.300 700.354 C 831.022 704.211, 825.183 704.078, 823.065 700.122 C 821.514 697.224, 821.762 688.785, 823.469 686.347 C 825.935 682.827, 828.940 682.724, 832.051 686.054 C 833.991 688.131, 835.749 689, 838.010 689 C 841.008 689, 841.172 688.821, 840.530 686.250 C 839.629 682.636, 837.240 680.037, 833.282 678.362 C 829.003 676.551, 826.213 676.647, 822 678.752 M 414.172 690.750 C 414.590 705.004, 415.428 707.326, 420.795 709.097 C 424.530 710.330, 428.652 709.608, 431.250 707.267 C 432.847 705.828, 433 705.835, 433 707.345 C 433 708.609, 433.945 709, 437 709 L 441 709 441 693.500 L 441 678 437 678 L 433 678 433 689.378 C 433 697.291, 432.619 701.053, 431.750 701.733 C 429.448 703.535, 426.148 703.792, 424.065 702.333 C 422.183 701.015, 422 699.872, 422 689.443 L 422 678 417.900 678 L 413.799 678 414.172 690.750 M 717 678.591 C 717 678.916, 719.308 685.891, 722.130 694.091 L 727.259 709 730.880 708.998 L 734.500 708.995 739.416 694.748 C 742.119 686.911, 744.541 679.909, 744.797 679.186 C 745.146 678.203, 744.175 677.951, 740.942 678.186 L 736.621 678.500 734.081 688.250 C 732.684 693.612, 731.268 698, 730.934 698 C 730.383 698, 729.234 694.297, 726.047 682.250 C 724.964 678.154, 724.779 678, 720.961 678 C 718.783 678, 717 678.266, 717 678.591 M 392.198 684.122 C 389.211 685.227, 387.728 689.461, 388.273 695.325 C 388.790 700.897, 390.669 703.250, 394.600 703.250 C 398.728 703.250, 401 699.828, 401 693.612 C 401 685.889, 397.531 682.150, 392.198 684.122 M 530.198 684.122 C 527.211 685.227, 525.728 689.461, 526.273 695.325 C 526.790 700.897, 528.669 703.250, 532.600 703.250 C 536.728 703.250, 539 699.828, 539 693.612 C 539 685.889, 535.531 682.150, 530.198 684.122 M 697.998 684.336 C 696.739 684.976, 695.339 686.513, 694.887 687.750 C 694.092 689.924, 694.266 690, 700.032 690 C 705.204 690, 706 689.749, 706 688.122 C 706 684.693, 701.492 682.560, 697.998 684.336 M 793.998 684.336 C 792.739 684.976, 791.339 686.513, 790.887 687.750 C 790.092 689.924, 790.266 690, 796.032 690 C 801.204 690, 802 689.749, 802 688.122 C 802 684.693, 797.492 682.560, 793.998 684.336 M 455.872 685.654 C 453.832 688.112, 454.037 699.466, 456.161 701.589 C 458.123 703.551, 462.377 703.762, 464.497 702.003 C 466.274 700.528, 466.609 689.007, 464.965 685.934 C 463.651 683.480, 457.826 683.300, 455.872 685.654 M 625.035 685.934 C 623.590 688.635, 623.740 699.292, 625.250 701.181 C 627.483 703.974, 630.991 704.100, 633.610 701.481 C 635.531 699.560, 636 698.047, 636 693.768 C 636 686.893, 634.068 684, 629.478 684 C 627.132 684, 625.748 684.603, 625.035 685.934 M 592.571 696.571 C 589.565 699.578, 591.298 704.033, 595.450 703.968 C 598.755 703.917, 601 701.559, 601 698.140 C 601 695.231, 600.748 695, 597.571 695 C 595.686 695, 593.436 695.707, 592.571 696.571" stroke="none" fill="#fcbc34" fill-rule="evenodd"/><path d="M 0 600.001 L 0 1200.002 600.250 1199.751 L 1200.500 1199.500 1200.751 599.750 L 1201.002 0 600.501 0 L 0 0 0 600.001 M 0.497 600.500 C 0.497 930.500, 0.611 1065.649, 0.750 900.832 C 0.889 736.015, 0.889 466.015, 0.750 300.832 C 0.611 135.649, 0.497 270.500, 0.497 600.500 M 195 600 L 195 840 600 840 L 1005 840 1005 600 L 1005 360 600 360 L 195 360 195 600 M 210 600 L 210 825 600 825 L 990 825 990 600 L 990 375 600 375 L 210 375 210 600 M 225 600 L 225 810 600 810 L 975 810 975 600 L 975 390 600 390 L 225 390 225 600 M 240 484 L 240 563 352.500 563 L 465 563 465 570 L 465 577 352.500 577 L 240 577 240 686 L 240 795 600 795 L 960 795 960 686 L 960 577 847.500 577 L 735 577 735 570 L 735 563 847.500 563 L 960 563 960 484 L 960 405 600 405 L 240 405 240 484 M 527.924 454.580 L 525.500 457.160 525.228 520.080 L 524.956 583 600 583 L 675.044 583 674.772 520.080 L 674.500 457.160 672.076 454.580 L 669.651 452 600 452 L 530.349 452 527.924 454.580 M 532.250 457.662 C 531.448 457.986, 531 460.286, 531 464.083 L 531 470 600 470 L 669 470 669 464.107 C 669 459.656, 668.613 458.065, 667.418 457.607 C 665.528 456.881, 534.052 456.935, 532.250 457.662 M 531 526.500 L 531 578 600 578 L 669 578 669 526.500 L 669 475 600 475 L 531 475 531 526.500 M 609.091 490.250 C 608.618 491.488, 602.270 507.044, 594.985 524.820 C 585.951 546.866, 582.066 557.466, 582.764 558.164 C 585.765 561.165, 587.331 558.302, 601.149 524.535 C 608.794 505.855, 614.827 489.992, 614.556 489.285 C 613.735 487.146, 610.027 487.801, 609.091 490.250 M 560.500 512.384 C 553.186 516.628, 549.500 519.347, 549.500 520.500 C 549.500 522.634, 570.530 535.120, 573.500 534.750 C 574.736 534.595, 575.500 533.750, 575.500 532.537 C 575.500 531.117, 573.081 529.194, 566.746 525.579 C 561.069 522.340, 558.433 520.317, 559.246 519.826 C 559.936 519.409, 563.875 517.126, 568 514.753 C 573.333 511.685, 575.500 509.869, 575.500 508.469 C 575.500 504.888, 571.716 505.875, 560.500 512.384 M 624.306 507.645 C 623.555 509.601, 624.847 510.645, 634.943 516.233 C 640.516 519.318, 642.024 520.577, 640.943 521.241 C 640.149 521.729, 635.985 524.155, 631.690 526.633 C 626.163 529.821, 623.973 531.629, 624.200 532.819 C 624.807 536.004, 628.531 535.009, 639.500 528.732 C 647.546 524.127, 650.500 521.917, 650.500 520.500 C 650.500 519.082, 647.553 516.883, 639.500 512.289 C 627.993 505.725, 625.352 504.918, 624.306 507.645 M 366 687 L 366 709 370 709 L 374 709 374 687 L 374 665 370 665 L 366 665 366 687 M 466 672.500 C 466 676.625, 465.844 680, 465.654 680 C 465.463 680, 463.810 679.253, 461.981 678.340 C 459.028 676.867, 458.201 676.839, 454.624 678.090 C 448.811 680.124, 446.493 684.535, 446.526 693.500 C 446.559 702.136, 448.644 706.536, 453.708 708.652 C 457.609 710.281, 461.460 709.782, 464.229 707.286 C 465.797 705.873, 466.017 705.880, 466.586 707.364 C 466.997 708.434, 468.388 709, 470.607 709 L 474 709 474 687 L 474 665 470 665 L 466 665 466 672.500 M 553 687 L 553 709 557 709 L 561 709 561 687 L 561 665 557 665 L 553 665 553 687 M 569 687 L 569 709 573 709 L 577 709 577 687 L 577 665 573 665 L 569 665 569 687 M 616.365 687 L 616.325 709 619.694 709 C 621.808 709, 623.283 708.425, 623.655 707.457 C 624.174 706.104, 624.492 706.135, 626.229 707.707 C 629.250 710.441, 636.192 710.108, 639.421 707.074 C 645.395 701.462, 645.549 686.729, 639.702 680.265 C 636.924 677.195, 631.906 676.402, 627.902 678.399 C 626.137 679.280, 624.537 680, 624.346 680 C 624.156 680, 624 676.625, 624 672.500 L 624 665 620.203 665 L 616.406 665 616.365 687 M 846 687 L 846 709 850 709 L 854 709 854 697.622 C 854 685.213, 854.599 683.750, 859.675 683.750 C 864.084 683.750, 865 686.234, 865 698.191 L 865 709 869.082 709 L 873.163 709 872.832 696.569 C 872.545 685.827, 872.215 683.756, 870.404 681.319 C 867.299 677.143, 862.136 676.132, 857.593 678.813 L 854 680.933 854 672.966 L 854 665 850 665 L 846 665 846 687 M 337.594 666.990 C 333.176 668.389, 328.357 673.655, 326.974 678.592 C 325.236 684.800, 326.122 697.703, 328.573 701.865 C 331.518 706.867, 336.485 709.473, 342.996 709.432 C 349.613 709.391, 354.344 707.123, 357.040 702.701 C 360.162 697.581, 359.681 696, 355 696 C 352.111 696, 351 696.417, 351 697.500 C 351 700.323, 347.190 703, 343.174 703 C 337.428 703, 334.914 699.803, 334.261 691.664 C 333.585 683.245, 334.567 678.342, 337.521 675.388 C 342.003 670.906, 351 673.317, 351 679 C 351 680.667, 351.667 681, 355 681 C 358.483 681, 359 680.709, 358.996 678.750 C 358.991 675.434, 355.521 670.321, 352.061 668.532 C 348.202 666.536, 341.337 665.804, 337.594 666.990 M 491.594 666.990 C 487.176 668.389, 482.357 673.655, 480.974 678.592 C 479.236 684.800, 480.122 697.703, 482.573 701.865 C 485.518 706.867, 490.485 709.473, 496.996 709.432 C 503.613 709.391, 508.344 707.123, 511.040 702.701 C 514.162 697.581, 513.681 696, 509 696 C 506.111 696, 505 696.417, 505 697.500 C 505 700.323, 501.190 703, 497.174 703 C 491.428 703, 488.914 699.803, 488.261 691.664 C 487.585 683.245, 488.567 678.342, 491.521 675.388 C 496.003 670.906, 505 673.317, 505 679 C 505 680.667, 505.667 681, 509 681 C 512.483 681, 513 680.709, 512.996 678.750 C 512.991 675.434, 509.521 670.321, 506.061 668.532 C 502.202 666.536, 495.337 665.804, 491.594 666.990 M 650 688 L 650 709 657.250 708.994 C 667.220 708.987, 671.795 707.518, 676.186 702.914 C 683.632 695.108, 683.104 678.828, 675.173 671.655 C 671.838 668.639, 665.986 667.091, 657.750 667.044 L 650 667 650 688 M 747 670.500 L 747 674 753.500 674 L 760 674 760 691.500 L 760 709 764 709 L 768 709 768 691.500 L 768 674 774.500 674 L 781 674 781 670.500 L 781 667 764 667 L 747 667 747 670.500 M 658 688 L 658 702 662.066 702 C 669.870 702, 673 697.992, 673 688 C 673 678.008, 669.870 674, 662.066 674 L 658 674 658 688 M 390.286 677.653 C 386.791 678.405, 382.306 683.247, 380.968 687.711 C 379.411 692.910, 380.401 699.810, 383.330 704.177 C 387.414 710.263, 397.461 711.572, 403.520 706.806 C 411.104 700.840, 410.760 685.495, 402.913 679.748 C 400.262 677.806, 394.227 676.805, 390.286 677.653 M 528.286 677.653 C 524.791 678.405, 520.306 683.247, 518.968 687.711 C 517.411 692.910, 518.401 699.810, 521.330 704.177 C 525.414 710.263, 535.461 711.572, 541.520 706.806 C 549.104 700.840, 548.760 685.495, 540.913 679.748 C 538.262 677.806, 532.227 676.805, 528.286 677.653 M 591.313 678.102 C 588.038 679.050, 584 683.209, 584 685.635 C 584 687.925, 591.270 687.398, 592.768 685 C 595.177 681.143, 601 683.053, 601 687.700 C 601 689.500, 600.445 690, 598.443 690 C 594.087 690, 587.201 692.120, 585.519 693.979 C 578.503 701.732, 588.588 713.345, 598.181 708.560 C 600.242 707.531, 601.602 707.307, 601.820 707.959 C 602.010 708.531, 603.841 709, 605.888 709 L 609.609 709 609.207 696.750 C 608.757 683.044, 607.888 680.687, 602.454 678.416 C 598.652 676.828, 595.979 676.752, 591.313 678.102 M 694.424 678.848 C 685.607 682.955, 683.434 698.162, 690.636 705.364 C 695.796 710.524, 705.502 711.053, 710.835 706.466 C 713.390 704.268, 713.420 704.121, 711.701 702.222 C 709.983 700.324, 709.803 700.316, 706.505 701.998 C 701.105 704.750, 695.720 702.674, 694.840 697.500 C 694.522 695.629, 695.129 695.482, 704.250 695.214 L 714 694.928 714 691.432 C 714 680.413, 704.364 674.219, 694.424 678.848 M 790.424 678.848 C 781.607 682.955, 779.434 698.162, 786.636 705.364 C 791.796 710.524, 801.502 711.053, 806.835 706.466 C 809.390 704.268, 809.420 704.121, 807.701 702.222 C 805.983 700.324, 805.803 700.316, 802.505 701.998 C 797.105 704.750, 791.720 702.674, 790.840 697.500 C 790.522 695.629, 791.129 695.482, 800.250 695.214 L 810 694.928 810 691.432 C 810 680.413, 800.364 674.219, 790.424 678.848 M 822 678.752 C 813.471 683.012, 811.417 698.130, 818.329 705.767 C 824.555 712.647, 837.817 709.939, 840.452 701.250 C 841.070 699.214, 840.801 699, 837.617 699 C 835.682 699, 833.740 699.609, 833.300 700.354 C 831.022 704.211, 825.183 704.078, 823.065 700.122 C 821.514 697.224, 821.762 688.785, 823.469 686.347 C 825.935 682.827, 828.940 682.724, 832.051 686.054 C 833.991 688.131, 835.749 689, 838.010 689 C 841.008 689, 841.172 688.821, 840.530 686.250 C 839.629 682.636, 837.240 680.037, 833.282 678.362 C 829.003 676.551, 826.213 676.647, 822 678.752 M 414.172 690.750 C 414.590 705.004, 415.428 707.326, 420.795 709.097 C 424.530 710.330, 428.652 709.608, 431.250 707.267 C 432.847 705.828, 433 705.835, 433 707.345 C 433 708.609, 433.945 709, 437 709 L 441 709 441 693.500 L 441 678 437 678 L 433 678 433 689.378 C 433 697.291, 432.619 701.053, 431.750 701.733 C 429.448 703.535, 426.148 703.792, 424.065 702.333 C 422.183 701.015, 422 699.872, 422 689.443 L 422 678 417.900 678 L 413.799 678 414.172 690.750 M 717 678.591 C 717 678.916, 719.308 685.891, 722.130 694.091 L 727.259 709 730.880 708.998 L 734.500 708.995 739.416 694.748 C 742.119 686.911, 744.541 679.909, 744.797 679.186 C 745.146 678.203, 744.175 677.951, 740.942 678.186 L 736.621 678.500 734.081 688.250 C 732.684 693.612, 731.268 698, 730.934 698 C 730.383 698, 729.234 694.297, 726.047 682.250 C 724.964 678.154, 724.779 678, 720.961 678 C 718.783 678, 717 678.266, 717 678.591 M 392.198 684.122 C 389.211 685.227, 387.728 689.461, 388.273 695.325 C 388.790 700.897, 390.669 703.250, 394.600 703.250 C 398.728 703.250, 401 699.828, 401 693.612 C 401 685.889, 397.531 682.150, 392.198 684.122 M 530.198 684.122 C 527.211 685.227, 525.728 689.461, 526.273 695.325 C 526.790 700.897, 528.669 703.250, 532.600 703.250 C 536.728 703.250, 539 699.828, 539 693.612 C 539 685.889, 535.531 682.150, 530.198 684.122 M 697.998 684.336 C 696.739 684.976, 695.339 686.513, 694.887 687.750 C 694.092 689.924, 694.266 690, 700.032 690 C 705.204 690, 706 689.749, 706 688.122 C 706 684.693, 701.492 682.560, 697.998 684.336 M 793.998 684.336 C 792.739 684.976, 791.339 686.513, 790.887 687.750 C 790.092 689.924, 790.266 690, 796.032 690 C 801.204 690, 802 689.749, 802 688.122 C 802 684.693, 797.492 682.560, 793.998 684.336 M 455.872 685.654 C 453.832 688.112, 454.037 699.466, 456.161 701.589 C 458.123 703.551, 462.377 703.762, 464.497 702.003 C 466.274 700.528, 466.609 689.007, 464.965 685.934 C 463.651 683.480, 457.826 683.300, 455.872 685.654 M 625.035 685.934 C 623.590 688.635, 623.740 699.292, 625.250 701.181 C 627.483 703.974, 630.991 704.100, 633.610 701.481 C 635.531 699.560, 636 698.047, 636 693.768 C 636 686.893, 634.068 684, 629.478 684 C 627.132 684, 625.748 684.603, 625.035 685.934 M 592.571 696.571 C 589.565 699.578, 591.298 704.033, 595.450 703.968 C 598.755 703.917, 601 701.559, 601 698.140 C 601 695.231, 600.748 695, 597.571 695 C 595.686 695, 593.436 695.707, 592.571 696.571" stroke="none" fill="#14346c" fill-rule="evenodd"/></svg>